<?xml version="1.0" encoding="utf-8"?>
<!-- Generator: Adobe Illustrator 25.4.1, SVG Export Plug-In . SVG Version: 6.00 Build 0)  -->
<svg version="1.1" id="Layer_1" xmlns="http://www.w3.org/2000/svg" xmlns:xlink="http://www.w3.org/1999/xlink" x="0px" y="0px"
	 viewBox="0 0 316.6 106.7" style="enable-background:new 0 0 316.6 106.7;" xml:space="preserve">
<style type="text/css">
	.st0{fill:url(#SVGID_1_);}
	.st1{fill:url(#SVGID_00000155133472989825833690000011675715077613165471_);}
	.st2{fill:url(#SVGID_00000026142527358833125730000011997064179571032991_);}
	.st3{fill:#FFFFFF;}
</style>
<linearGradient id="SVGID_1_" gradientUnits="userSpaceOnUse" x1="392.7517" y1="-432.0403" x2="477.3524" y2="-432.0403" gradientTransform="matrix(1 0 0 -1 -381.7 -378.65)">
	<stop  offset="0" style="stop-color:#00AAFF"/>
	<stop  offset="1" style="stop-color:#891FFF"/>
</linearGradient>
<path class="st0" d="M78.7,87.4c-6.2,4.6-13.5,7.5-21.2,8.2c2.6-2.4,4.9-5.1,7-7.9c3.8-5,10.8-14.3,11.4-27.3
	c0.4-5.8-0.7-11.6-3.3-16.7c-0.6-1.1-1.3-2.2-2-3.2c-7.2-9.6-20.8-11.5-30.3-4.4c-9.6,7.2-11.5,20.8-4.4,30.3
	c6.6,8.8,18.7,11.3,28.2,5.8c-1,0.9-2,1.7-3.1,2.5c-10.3,7.8-23.2,11.4-36,10.2C7.7,69.3,6.3,42.5,21.9,25.2
	C37.6,7.8,64.3,6.4,81.7,22.1c17.4,15.6,18.7,42.4,3.1,59.7C82.9,83.9,80.9,85.7,78.7,87.4z"/>
<linearGradient id="SVGID_00000016050995966842906120000013237049071046382754_" gradientUnits="userSpaceOnUse" x1="45.41" y1="54.65" x2="61.29" y2="54.65" gradientTransform="matrix(1 0 0 -1 0 108)">
	<stop  offset="0" style="stop-color:#00AAFF"/>
	<stop  offset="1" style="stop-color:#891FFF"/>
</linearGradient>
<circle style="fill:url(#SVGID_00000016050995966842906120000013237049071046382754_);" cx="53.3" cy="53.3" r="7.9"/>
<linearGradient id="SVGID_00000080173485230415258790000009291111473869925822_" gradientUnits="userSpaceOnUse" x1="381.71" y1="-432" x2="488.41" y2="-432" gradientTransform="matrix(1 0 0 -1 -381.7 -378.65)">
	<stop  offset="0" style="stop-color:#00AAFF"/>
	<stop  offset="1" style="stop-color:#891FFF"/>
</linearGradient>
<path style="fill:url(#SVGID_00000080173485230415258790000009291111473869925822_);" d="M53.4,106.7C23.9,106.7,0,82.8,0,53.3
	C0,23.9,23.9,0,53.4,0c29.5,0,53.4,23.9,53.4,53.4l0,0C106.7,82.8,82.8,106.7,53.4,106.7z M53.4,6.2C27.3,6.2,6.2,27.3,6.2,53.3
	s21.1,47.2,47.2,47.2s47.2-21.1,47.2-47.2C100.5,27.3,79.4,6.2,53.4,6.2L53.4,6.2z"/>
<path d="M179.3,43.9c-0.1-0.2-0.1-0.2-0.2-0.2c-1.1,0-2.7,0-4.9,0.1s-3.6,0.1-4.7,0.1c0,0.1,0,0.2,0,0.2c0,7.6,0,11.8-0.2,12.8
	c-0.1,0.5-0.3,1.5-1.9,4.4c-1.7,3.2-2.5,3.8-3.3,3.8s-1.6-0.6-3.2-3.8c-0.7-1.3-1.3-2.6-1.8-4c-0.3-1.6-0.4-3.3-0.3-4.9
	c0-0.9,0.1-2.3,0.2-4.2s0.2-3.2,0.2-4.1c0,0,0-0.1,0-0.1c-1.6-0.1-2.8-0.1-3.7-0.1h-2.5h-3.8c0,0,0,0.1,0,0.1c0,0.7,0.1,1.7,0.2,3.1
	s0.2,2.5,0.2,3.3c0,4.8-0.3,6.1-0.5,6.8c-0.5,1.4-1.1,2.8-1.9,4.2c-1.7,3.1-2.5,3.7-3.2,3.7s-1.2-0.3-3.1-3.7c-1.7-3-2-3.9-2-4.4
	c-0.2-1.4-0.2-3.6-0.2-6.5c0-0.7,0-1.8,0.1-3.2s0.1-2.4,0.1-3.1c0-0.1,0-0.1,0-0.2c-1.1,0-2.7,0-4.8-0.1s-3.8-0.1-4.9-0.1
	c-0.2,0-0.2,0-0.3,0.2c-0.1,0.6-0.3,2.5-0.3,7.8c0,3.5,0.3,6,0.9,7.4c1.4,3.2,3.1,6.4,4.9,9.4c3.8,6.4,5.1,7.2,5.4,7.3
	c1.1,0.2,2.2,0.2,3.2,0.2c3.3,0,3.9-0.5,4-0.6c1-1.1,3.1-4.4,6-9.6l0.9-1.6l0.9,1.6c2.8,5.1,4.8,8.3,6.1,9.6
	c0.2,0.2,0.5,0.4,0.8,0.5c1.2,0.2,2.4,0.2,3.7,0.2c3.1,0,3.8-0.5,4-0.7c1.9-2.5,3.6-5,5.1-7.8c1.7-2.7,3.2-5.5,4.6-8.4
	c0.5-1.3,0.8-3.8,0.8-7.4C179.7,46.4,179.5,44.5,179.3,43.9z M154.5,42.9h-0.1c-0.1,0-0.1,0,0,0H154.5z"/>
<path class="st3" d="M154.3,42.9C154.3,42.9,154.3,42.9,154.3,42.9L154.3,42.9z"/>
<path d="M220.9,44.7c-1-0.3-2.6-0.7-4.8-1.1c-1.5-0.3-3-0.6-4.5-0.7c-0.1,0.3-0.2,0.7-0.3,1c-0.3,1.4-0.7,2.5-1.7,2.5
	c-0.4,0-0.8-0.2-1-0.6c-2-2.4-5-3.7-8.1-3.5c-5.1,0-9,1.6-12,4.9s-4.2,7.3-4.2,12.6c-0.1,4.2,1.3,8.4,4,11.6
	c2.6,3.3,6.6,5.2,10.8,5.1c2.8,0,5.4-1.2,7.9-3.7c0.3-0.3,0.6-0.6,1-0.8l0.3-0.1h0.3c1,0.1,1.2,1.3,1.4,3c0,0.4,0.1,0.8,0.2,1.2
	c3.7,0,6.9-0.1,9.8-0.3c0.2,0,0.3,0,0.3-0.5c0-1.8-0.1-4.5-0.3-8.1s-0.3-6.4-0.3-8.2c0-4.6,0.4-9.3,1.2-13.8
	C220.8,44.9,220.8,44.8,220.9,44.7z M202.3,66.1c-1.8,0-3.6-0.7-4.9-2.1c-1.3-1.3-2-3.1-2-5c-0.1-1.9,0.6-3.6,1.9-5
	c2.8-2.7,7.2-2.7,10,0c2.6,2.9,2.6,7.2,0,10.1C206,65.4,204.2,66.1,202.3,66.1z"/>
<path class="st3" d="M208,53.4c-3.2-3-8.2-3-11.4,0c-2.9,3.2-2.9,8.2,0.1,11.4c1.4,1.5,3.5,2.4,5.6,2.4c2.1,0.1,4.2-0.8,5.7-2.3
	C210.9,61.6,210.9,56.6,208,53.4L208,53.4z M202.3,65.1c-1.6,0-3.1-0.6-4.1-1.8c-2.3-2.4-2.3-6.1-0.1-8.6c1.1-1.1,2.7-1.7,4.2-1.7
	c1.6-0.1,3.1,0.5,4.3,1.7c2.2,2.5,2.2,6.2,0,8.7C205.4,64.5,203.9,65.1,202.3,65.1z M208,53.3c-3.2-3-8.2-3-11.4,0
	c-2.9,3.2-2.9,8.2,0.1,11.4c1.4,1.5,3.5,2.4,5.6,2.4c2.1,0.1,4.2-0.8,5.7-2.3C210.9,61.6,210.9,56.6,208,53.3L208,53.3z M202.3,65.1
	c-1.6,0-3.1-0.6-4.1-1.8c-2.3-2.4-2.3-6.1-0.1-8.6c1.1-1.1,2.7-1.7,4.2-1.7c1.6-0.1,3.1,0.5,4.3,1.7c2.2,2.5,2.2,6.2,0,8.7
	C205.4,64.5,203.9,65.1,202.3,65.1z M208,53.3c-3.2-3-8.2-3-11.4,0c-2.9,3.2-2.9,8.2,0.1,11.4c1.4,1.5,3.5,2.4,5.6,2.4
	c2.1,0.1,4.2-0.8,5.7-2.3C210.9,61.6,210.9,56.6,208,53.3L208,53.3z M202.3,65.1c-1.6,0-3.1-0.6-4.1-1.8c-2.3-2.4-2.3-6.1-0.1-8.6
	c1.1-1.1,2.7-1.7,4.2-1.7c1.6-0.1,3.1,0.5,4.3,1.7c2.2,2.5,2.2,6.2,0,8.7C205.4,64.5,203.9,65.1,202.3,65.1z"/>
<path d="M243.2,67.1h-2.5l1.8-1.7c11-10.7,13-13.3,13.3-13.9v-7.6h-0.2c-1.3,0-3.2,0-5.8,0.1s-4.5,0.1-5.8,0.1
	c-3.1,0-6.3-0.1-9.4-0.4l-4.2-0.5h-0.2c-0.2,2-0.6,3.9-1.1,5.8c-0.6,2.2-0.9,3.4-1,4c0.9,0,2,0,3.4-0.1c1.8-0.1,3.1-0.1,4-0.1
	c0.6,0,1.4,0,2.6,0.1s1.9,0.1,2.5,0.1h2.3l-1.6,1.6c-4.2,4.5-8.7,8.8-13.4,12.8c-0.1,0.1-0.1,0.1-0.2,0.2c0,0.6,0.1,1.1,0.2,1.7
	c0.1,0.7,0.2,1.4,0.2,2.2c0,0.4,0,1.2-0.1,2.4c0,0.9,0,1.7,0,2.2c0.5,0,1.2-0.1,2.1-0.2l2.5-0.2c1.7-0.1,4.5-0.2,8.3-0.2
	c3.4,0,5.9,0,7.4,0.1c0.7,0,1.9,0.1,3.5,0.3c1.4,0.2,2.4,0.2,3.2,0.2c0.4-2.2,0.7-3.8,0.8-5c0.5-2.3,0.9-3.8,1.2-4.8
	C252.6,67,247.9,67.2,243.2,67.1z"/>
<path d="M275,43.8c-0.7,0-1.6,0.1-2.8,0.2c-1.4,0.1-2.5,0.2-3.2,0.2s-1.8-0.1-3.2-0.2s-2.3-0.2-2.9-0.2c0,0.1,0,0.2,0,0.3
	c0.6,5.4,0.9,10.8,0.8,16.3c0,1.7,0,4.1-0.1,7.5s-0.1,5.8-0.1,7.4c0,0.2,0,0.4,0,0.5l0.2,0c1.8,0.2,3.6,0.3,5.3,0.2
	c1.8,0.1,3.5,0,5.3-0.2h0.1c0-1.7,0-4.3-0.1-7.6s-0.1-6-0.1-7.8c0-5.4,0.2-10.9,0.8-16.3C275,43.9,275,43.8,275,43.8z M273.3,30
	c-1.2-1-2.7-1.5-4.2-1.5c-1.5,0-3.1,0.5-4.3,1.4c-2.1,1.8-2.4,4.9-0.7,7c0.2,0.2,0.4,0.4,0.6,0.6c1.2,0.9,2.8,1.4,4.3,1.4
	c4.1,0,6-1.7,6-5.2C275.1,32.3,274.5,30.9,273.3,30z"/>
<path d="M316.6,68.7c0-3.1,0-5.4,0-7V50.4c0.1-2.4-1-4.6-3-6c-2.1-1.4-4.5-2.1-7-2c-2.5,0.2-4.8,1-6.9,2.3c-2.8,1.7-4.3,2.6-4.3,2.6
	h-0.8l-0.1-0.4c-0.5-0.9-0.7-1.9-0.7-2.9c0-0.5-0.1-1-0.2-1.4c-0.7,0.1-2.3,0.4-5.6,1c-2.3,0.3-4.3,0.6-5.7,0.8v0.2
	c1.1,4.6,1.6,9.4,1.4,14.2c0,1.9,0,4.7,0,8.4s0,6.5,0,8.4c0,0,0,0.1,0,0.1c0.1,0,0.2,0.1,0.2,0.1c1.8,0.2,3.5,0.3,5.3,0.2
	c2.5,0,4.2,0,5-0.1c0.1,0,0.1,0,0.2,0c0-0.1,0-0.2,0-0.3V56.1c0-1.2,0.8-2.4,2.4-3.5c1.1-0.8,2.4-1.3,3.8-1.4c2,0,5.2,0.8,5.2,5.9
	c0,0.9,0,2.2,0.1,3.9s0.1,3.1,0.1,4c0,1.2,0,2.8-0.1,5.1s-0.1,4-0.1,5c0,0.4,0.1,0.5,0.3,0.5c1.8,0.2,3.6,0.3,5.4,0.2
	c1.7,0,3.4,0,5.1-0.1h0.1c0,0,0-0.1,0-0.1C316.6,74.1,316.6,71.8,316.6,68.7z"/>
</svg>
