<?xml version="1.0" encoding="utf-8"?>
<!-- Generator: Adobe Illustrator 25.4.1, SVG Export Plug-In . SVG Version: 6.00 Build 0)  -->
<svg version="1.1" id="Layer_1" xmlns="http://www.w3.org/2000/svg" xmlns:xlink="http://www.w3.org/1999/xlink" x="0px" y="0px"
	 viewBox="0 0 500 500" style="enable-background:new 0 0 500 500;" xml:space="preserve">
<style type="text/css">
	.st0{fill:#EBEBEB;}
	.st1{fill:#FFFFFF;}
	.st2{fill:#263238;}
	.st3{fill:#2D51E0;}
	.st4{opacity:0.1;enable-background:new    ;}
	.st5{fill:#C7C7C7;}
	.st6{fill:#A6A6A6;}
	.st7{fill:#DBDBDB;}
</style>
<g id="freepik--background-complete--inject-65">
	<path class="st0" d="M408.1,144.2l10.5,6.5l2-3.2c0.6-0.9,1.7-1.5,2.8-1.4c0.6,0.1,1.2,0.1,1.9,0.1c1.1,0,2.1,0.6,2.7,1.5l1.8,3.4
		l10.9-5.9l-1.8-3.3c-0.5-1-0.4-2.2,0.2-3.1c0.4-0.5,0.7-1,1-1.6c0.5-1,1.6-1.6,2.7-1.6l3.8,0.1l0.4-12.4l-3.8-0.1
		c-1.1,0-2.1-0.7-2.6-1.7c-0.1-0.3-0.3-0.5-0.4-0.8s-0.3-0.5-0.5-0.8c-0.6-0.9-0.6-2.1,0-3.1l2-3.2l-10.5-6.5l-2,3.2
		c-0.6,0.9-1.7,1.5-2.8,1.4c-0.6-0.1-1.2-0.1-1.8-0.1c-1.1,0-2.1-0.6-2.7-1.5l-1.8-3.3l-10.9,5.9l1.8,3.3c0.5,1,0.4,2.2-0.2,3.1
		c-0.4,0.5-0.7,1-1,1.6c-0.5,1-1.6,1.6-2.7,1.6l-3.8-0.1l-0.4,12.4l3.8,0.1c1.1,0.1,2.1,0.7,2.6,1.7c0.1,0.3,0.3,0.6,0.4,0.8
		s0.3,0.5,0.5,0.8c0.6,0.9,0.6,2.1,0,3.1L408.1,144.2z M415.9,133.7c-2.6-4.9-0.8-11.1,4.2-13.7c4.9-2.6,11.1-0.8,13.7,4.2
		c2.6,4.9,0.8,11.1-4.2,13.7C424.7,140.5,418.6,138.6,415.9,133.7C415.9,133.7,415.9,133.7,415.9,133.7z"/>
	<path class="st0" d="M397.8,193.6l4.3,7.5l2.3-1.3c0.7-0.4,1.5-0.4,2.2,0.1c0.4,0.2,0.7,0.5,1.1,0.6c0.7,0.3,1.1,1,1.1,1.8v2.7h8.7
		v-2.7c0-0.8,0.4-1.5,1.1-1.8c0.4-0.2,0.8-0.4,1.1-0.6c0.6-0.4,1.5-0.5,2.2-0.1l2.3,1.3l4.3-7.5l-2.3-1.3c-0.7-0.4-1.1-1.1-1-1.9
		c0-0.2,0-0.4,0-0.6s0-0.4,0-0.6c-0.1-0.8,0.3-1.5,1-1.9l2.3-1.3l-4.3-7.5l-2.3,1.3c-0.7,0.4-1.5,0.4-2.2-0.1
		c-0.4-0.2-0.7-0.4-1.1-0.6c-0.7-0.3-1.1-1-1.1-1.8v-2.7h-8.7v2.7c0,0.8-0.4,1.5-1.1,1.8c-0.4,0.2-0.8,0.4-1.1,0.6
		c-0.7,0.4-1.5,0.5-2.2,0.1l-2.3-1.3l-4.3,7.5l2.3,1.3c0.7,0.4,1.1,1.1,1,1.9c0,0.2,0,0.4,0,0.6s0,0.4,0,0.6c0.1,0.8-0.3,1.5-1,1.9
		L397.8,193.6z M406.1,189.8c0-3.9,3.2-7.1,7.1-7.1c3.9,0,7.1,3.2,7.1,7.1s-3.2,7.1-7.1,7.1c0,0,0,0,0,0
		C409.3,196.9,406.1,193.7,406.1,189.8C406.1,189.8,406.1,189.8,406.1,189.8z"/>
	<path class="st0" d="M51.3,279.6l4.3,7.5l2.3-1.3c0.7-0.4,1.5-0.4,2.2,0.1c0.4,0.2,0.7,0.5,1.1,0.6c0.7,0.3,1.1,1.1,1.1,1.8v2.6H71
		v-2.7c0-0.8,0.4-1.5,1.2-1.8c0.4-0.2,0.8-0.4,1.1-0.6c0.6-0.4,1.5-0.5,2.2-0.1l2.3,1.3l4.3-7.5l-2.3-1.3c-0.7-0.4-1.1-1.1-1-1.9
		c0-0.2,0-0.4,0-0.6s0-0.4,0-0.6c-0.1-0.8,0.3-1.5,1-1.9l2.3-1.3l-4.3-7.5l-2.3,1.3c-0.7,0.4-1.5,0.4-2.2-0.1
		c-0.4-0.2-0.7-0.5-1.1-0.6c-0.7-0.3-1.1-1-1.1-1.8v-2.7h-8.7v2.7c0,0.8-0.4,1.5-1.1,1.8c-0.4,0.2-0.8,0.4-1.1,0.6
		c-0.6,0.4-1.5,0.5-2.2,0.1l-2.3-1.3l-4.3,7.5l2.3,1.3c0.7,0.4,1,1.1,1,1.9c0,0.2,0,0.4,0,0.6s0,0.4,0,0.6c0.1,0.8-0.3,1.5-1,1.9
		L51.3,279.6z M59.6,275.7c0-3.9,3.2-7.1,7.1-7.1s7.1,3.2,7.1,7.1s-3.2,7.1-7.1,7.1c0,0,0,0,0,0C62.8,282.8,59.6,279.7,59.6,275.7z"
		/>
	<rect x="47.5" y="45.3" class="st0" width="131.8" height="202"/>
	<rect x="54.7" y="53.4" class="st1" width="55.6" height="89.9"/>
	<rect x="116.5" y="53.4" class="st1" width="55.6" height="89.9"/>
	<rect x="54.7" y="149.4" class="st1" width="55.6" height="89.9"/>
	<rect x="116.5" y="149.4" class="st1" width="55.6" height="89.9"/>
	<polygon class="st0" points="88.4,53.4 54.7,87.1 54.7,67.2 68.5,53.4 	"/>
	<polygon class="st0" points="54.7,235.9 110.4,180.3 110.4,200.1 71.3,239.2 54.7,239.2 	"/>
	<polygon class="st0" points="161.1,149.4 116.5,194 116.5,174.1 141.3,149.4 	"/>
	<polygon class="st0" points="172.1,118.5 172.1,138.4 167.2,143.2 147.4,143.2 	"/>
	<polygon class="st0" points="172.1,218.4 172.1,238.3 171.2,239.2 151.3,239.2 	"/>
	<polygon class="st0" points="57.9,149.4 67.8,149.4 54.7,162.5 54.7,152.6 	"/>
	<polygon class="st0" points="64,143.2 110.4,96.9 110.4,106.8 74,143.2 	"/>
	<polygon class="st0" points="163.8,53.4 116.5,100.7 116.5,90.8 153.9,53.4 	"/>
	<polygon class="st0" points="104.7,53.4 54.7,103.4 54.7,100.9 102.2,53.4 	"/>
	<polygon class="st0" points="85.8,239.2 110.4,214.7 110.4,217.2 88.3,239.2 	"/>
	<polygon class="st0" points="172.1,152.9 172.1,155.4 116.5,211.1 116.5,208.6 	"/>
	<rect x="208.9" y="45.3" class="st0" width="131.8" height="202"/>
	<rect x="216.1" y="53.4" class="st1" width="55.6" height="89.9"/>
	<rect x="277.8" y="53.4" class="st1" width="55.6" height="89.9"/>
	<rect x="216.1" y="149.4" class="st1" width="55.6" height="89.9"/>
	<rect x="277.8" y="149.4" class="st1" width="55.6" height="89.9"/>
	<polygon class="st0" points="216.1,149.4 221.3,149.4 216.1,154.6 	"/>
	<polygon class="st0" points="216.1,134.7 271.7,79.1 271.7,99 227.4,143.2 216.1,143.2 	"/>
	<polygon class="st0" points="317.3,53.4 277.8,92.8 277.8,73 297.4,53.4 	"/>
	<polygon class="st0" points="333.5,178.6 333.5,198.4 292.7,239.2 277.8,239.2 277.8,234.2 	"/>
	<polygon class="st0" points="271.7,53.4 271.7,55.2 216.1,110.9 216.1,100.9 263.6,53.4 	"/>
	<polygon class="st0" points="249.6,239.2 271.7,217.1 271.7,227.1 259.6,239.2 	"/>
	<polygon class="st0" points="333.5,155.4 333.5,165.3 277.8,221 277.8,211 	"/>
	<polygon class="st0" points="228.1,149.4 230.6,149.4 216.1,163.9 216.1,161.4 	"/>
	<polygon class="st0" points="234.2,143.2 271.7,105.7 271.7,108.2 236.7,143.2 	"/>
	<polygon class="st0" points="326.5,53.4 277.8,102.1 277.8,99.6 324,53.4 	"/>
	<polygon class="st0" points="216.1,237.4 271.7,181.7 271.7,184.2 216.7,239.2 216.1,239.2 	"/>
	<polygon class="st0" points="306.5,149.4 277.8,178.1 277.8,175.6 304,149.4 	"/>
	<polygon class="st0" points="333.5,120 333.5,122.4 312.7,143.2 310.2,143.2 	"/>
</g>
<g id="freepik--Shadows--inject-65">
	<ellipse class="st0" cx="250" cy="427.7" rx="147" ry="19.8"/>
	<ellipse class="st0" cx="424.9" cy="428" rx="41.3" ry="8.2"/>
	<ellipse class="st0" cx="168.5" cy="448.5" rx="154" ry="18"/>
</g>
<g id="freepik--Floor--inject-65">
	<polygon class="st2" points="33.4,403.5 87.6,403.2 141.7,403.2 250,403 358.3,403.2 412.5,403.2 466.6,403.5 412.5,403.7 
		358.3,403.8 250,404 141.7,403.8 87.6,403.7 	"/>
</g>
<g id="freepik--Clock--inject-65">
	<polygon class="st3" points="142.7,389.2 128.4,427.7 145.1,427.7 176.1,406.6 	"/>
	<polygon class="st4" points="142.7,389.2 128.4,427.7 145.1,427.7 176.1,406.6 	"/>
	<polygon class="st3" points="357.3,389.2 371.6,427.7 354.9,427.7 323.9,406.6 	"/>
	<polygon class="st4" points="357.3,389.2 371.6,427.7 354.9,427.7 323.9,406.6 	"/>
	<circle class="st3" cx="250" cy="260" r="171"/>
	<circle class="st4" cx="247.9" cy="257.2" r="163.2"/>
	<circle class="st1" cx="250" cy="259.3" r="152.9"/>
	<path class="st0" d="M399.4,226.8c-69.6,42.2-184.1,111.4-248,149.3c-18.1-15.2-32.4-34.5-41.8-56.2l211.5-196.1
		C361.2,144.9,389.8,182.6,399.4,226.8z"/>
	<path class="st0" d="M402.8,264.6c-0.6,17-4,33.8-10.1,49.7L202,404.5c-8.3-2.7-16.4-6.2-24.1-10.4
		C235.5,360.8,340.8,300.2,402.8,264.6z"/>
	<rect x="248.5" y="117.5" class="st5" width="2.9" height="23.2"/>
	<rect x="183.4" y="134.9" transform="matrix(0.866 -0.5 0.5 0.866 -48.4684 112.0717)" class="st5" width="3" height="23.2"/>
	<rect x="135.7" y="182.5" transform="matrix(0.5 -0.866 0.866 0.5 -99.5199 215.9058)" class="st5" width="2.9" height="23.2"/>
	<rect x="108.2" y="257.8" class="st5" width="23.2" height="3"/>
	<rect x="125.6" y="322.9" transform="matrix(0.866 -0.5 0.5 0.866 -143.8117 112.0614)" class="st5" width="23.2" height="3"/>
	
		<rect x="173.3" y="370.6" transform="matrix(0.4995 -0.8663 0.8663 0.4995 -229.7876 346.3736)" class="st5" width="23.2" height="3"/>
	<rect x="248.5" y="377.9" class="st5" width="2.9" height="23.2"/>
	<rect x="313.6" y="360.4" transform="matrix(0.866 -0.5 0.5 0.866 -143.802 207.403)" class="st5" width="3" height="23.2"/>
	<rect x="361.3" y="312.8" transform="matrix(0.5 -0.866 0.866 0.5 -99.5176 476.3458)" class="st5" width="3" height="23.2"/>
	<rect x="368.6" y="257.8" class="st5" width="23.2" height="3"/>
	<rect x="351.2" y="192.7" transform="matrix(0.866 -0.5 0.5 0.866 -48.489 207.4027)" class="st5" width="23.2" height="2.9"/>
	<rect x="303.5" y="145" transform="matrix(0.4995 -0.8663 0.8663 0.4995 30.7829 346.3111)" class="st5" width="23.2" height="3"/>
	<polygon class="st3" points="390.7,261.2 242.4,265.4 242.5,250.9 390.7,257.3 	"/>
	<polygon class="st2" points="251,155 257.4,267.8 242.9,267.6 247.1,154.9 	"/>
	<circle class="st3" cx="250" cy="259.3" r="5"/>
</g>
<polygon class="st6" points="290.2,450.2 97.3,450.2 63.6,310.2 256.5,310.2 "/>
<polygon class="st7" points="29.4,450.2 222.2,450.2 256,310.2 63.1,310.2 "/>
<polygon class="st1" points="228,336.5 223.7,354.4 223.4,355.5 219,374.1 218.7,375.2 214.3,393.7 214,394.8 209.5,413.4 
	209.3,414.5 204.9,432.7 63.3,432.7 67.7,414.5 67.9,413.4 72.4,394.8 72.7,393.7 77.1,375.2 77.4,374.1 81.8,355.5 82.1,354.4 
	86.4,336.5 "/>
<polygon class="st0" points="107.1,336.5 102.8,354.4 102.6,355.5 98.1,374.1 97.9,375.2 93.4,393.7 93.1,394.8 88.7,413.4 
	88.4,414.5 84.1,432.7 82.9,432.7 87.3,414.5 87.6,413.4 92,394.8 92.3,393.7 96.7,375.2 97,374.1 101.4,355.5 101.7,354.4 
	106,336.5 "/>
<polygon class="st0" points="127.3,336.5 123,354.4 122.7,355.5 118.3,374.1 118,375.2 113.6,393.7 113.3,394.8 108.9,413.4 
	108.6,414.5 104.2,432.7 103.1,432.7 107.5,414.5 107.7,413.4 112.2,394.8 112.4,393.7 116.9,375.2 117.2,374.1 121.6,355.5 
	121.9,354.4 126.2,336.5 "/>
<polygon class="st0" points="147.5,336.5 143.2,354.4 142.9,355.5 138.5,374.1 138.2,375.2 133.8,393.7 133.5,394.8 129,413.4 
	128.8,414.5 124.4,432.7 123.3,432.7 127.7,414.5 127.9,413.4 132.4,394.8 132.6,393.7 137.1,375.2 137.3,374.1 141.8,355.5 
	142.1,354.4 146.4,336.5 "/>
<polygon class="st0" points="167.6,336.5 163.4,354.4 163.1,355.5 158.6,374.1 158.4,375.2 153.9,393.7 153.7,394.8 149.2,413.4 
	148.9,414.5 144.6,432.7 143.4,432.7 147.8,414.5 148.1,413.4 152.5,394.8 152.8,393.7 157.2,375.2 157.5,374.1 162,355.5 
	162.2,354.4 166.5,336.5 "/>
<polygon class="st0" points="187.8,336.5 183.5,354.4 183.3,355.5 178.8,374.1 178.6,375.2 174.1,393.7 173.9,394.8 169.4,413.4 
	169.1,414.5 164.8,432.7 163.6,432.7 168,414.5 168.3,413.4 172.7,394.8 173,393.7 177.4,375.2 177.7,374.1 182.1,355.5 
	182.4,354.4 186.7,336.5 "/>
<polygon class="st0" points="208,336.5 203.7,354.4 203.4,355.5 199,374.1 198.7,375.2 194.3,393.7 194,394.8 189.6,413.4 
	189.3,414.5 184.9,432.7 183.8,432.7 188.2,414.5 188.4,413.4 192.9,394.8 193.1,393.7 197.6,375.2 197.9,374.1 202.3,355.5 
	202.6,354.4 206.9,336.5 "/>
<polygon class="st0" points="223.7,354.4 223.4,355.5 81.8,355.5 82.1,354.4 "/>
<polygon class="st0" points="219,374.1 218.7,375.2 77.1,375.2 77.4,374.1 "/>
<polygon class="st0" points="214.3,393.7 214,394.8 72.4,394.8 72.7,393.7 "/>
<polygon class="st0" points="209.5,413.4 209.3,414.5 67.7,414.5 67.9,413.4 "/>
<rect x="103.5" y="374.5" transform="matrix(0.778 -0.6282 0.6282 0.778 -218.1218 151.2062)" class="st5" width="2.7" height="19.6"/>
<rect x="93.2" y="383" transform="matrix(0.739 -0.6737 0.6737 0.739 -231.6254 170.8796)" class="st5" width="23.1" height="2.7"/>
<rect x="148.3" y="355.3" transform="matrix(0.778 -0.6282 0.6282 0.778 -196.1674 175.0822)" class="st5" width="2.7" height="19.6"/>
<rect x="138" y="363.9" transform="matrix(0.739 -0.6737 0.6737 0.739 -207.06 196.0483)" class="st5" width="23.1" height="2.7"/>
<polygon class="st3" points="88.1,373.7 82.9,364.6 85.3,363.3 88.5,369 100.4,354.6 102.5,356.4 "/>
<polygon class="st3" points="113.3,431.6 108.1,422.5 110.5,421.2 113.7,426.9 125.6,412.5 127.7,414.3 "/>
<path class="st3" d="M185,376c-2.5,1.4-4.9,3.1-6.9,5.1c-2,2-3.8,4.4-4,7.2c-0.2,1.3,0.1,2.6,0.9,3.6c0.9,1,2.1,1.6,3.4,1.9
	c2.7,0.6,5.6,0.5,8.3-0.2c2.7-0.6,5.3-1.8,7.5-3.5c1.1-0.9,2-1.9,2.6-3.1c0.6-1.2,0.9-2.5,0.8-3.8c-0.2-1.3-1-2.5-2.1-3.2
	c-1.1-0.8-2.4-1.4-3.8-1.6c-2.8-0.7-5.7-0.6-8.5,0.1c2.8-1,5.8-1.3,8.7-0.8c1.5,0.2,2.9,0.8,4.2,1.6c1.4,0.8,2.3,2.2,2.7,3.8
	c0.2,1.6-0.1,3.2-0.8,4.6c-0.7,1.4-1.7,2.6-2.9,3.6c-4.8,3.8-11,5.3-17,4c-1.5-0.4-2.9-1.2-4-2.4c-0.5-0.6-0.9-1.4-1-2.2
	c-0.1-0.8-0.1-1.6,0-2.4c0.5-3.1,2.4-5.6,4.6-7.5C179.9,378.8,182.3,377.2,185,376z"/>
<polygon class="st5" points="102.7,341.5 87.7,341.5 88.1,339.7 103.1,339.7 "/>
<polygon class="st5" points="95.8,344.6 86.9,344.6 87.4,342.8 96.2,342.8 "/>
<polygon class="st5" points="163.8,399.3 154.7,399.3 155.1,397.5 164.2,397.5 "/>
<polygon class="st5" points="162.4,405.7 153.2,405.7 153.6,403.9 162.8,403.9 "/>
<polygon class="st5" points="168.3,402.4 153.9,402.4 154.4,400.6 168.7,400.6 "/>
<polygon class="st5" points="187.5,385.1 178.4,385.1 178.8,383.3 188,383.3 "/>
<polygon class="st5" points="192,388.3 177.6,388.3 178.1,386.5 192.4,386.5 "/>
<path class="st3" d="M230.5,332.7c0,0-4.3,18.5-6.1,26.4s-9.3,12.9-9.3,12.9h-40.9c0,0,7.3-8.6,8.8-15.1l5.6-24.2L230.5,332.7z"/>
<path class="st6" d="M69.1,319.8c-1.4,0-2.8-0.7-3.7-1.8c-1-1.1-2.4-3.8-1-8.6c1.3-4.4,4.5-6.2,7-5.7c1.9,0.4,4,2.3,3.6,6.5
	c0,0.7-0.6,1.1-1.3,1.1c0,0,0,0,0,0c-0.7-0.1-1.2-0.6-1.1-1.3c0.2-2.2-0.5-3.7-1.7-4c-1.4-0.3-3.3,1.1-4.2,4.1
	c-0.8,2.7-0.7,5,0.5,6.3c0.5,0.6,1.2,1,2.1,1c0.7-0.1,1.3,0.3,1.4,0.9c0.1,0.7-0.3,1.3-0.9,1.4c-0.1,0-0.1,0-0.2,0
	C69.4,319.8,69.3,319.8,69.1,319.8z"/>
<path class="st6" d="M84,319.8c-1.5,0-2.8-0.7-3.8-1.8c-1-1.1-2.4-3.8-1-8.6c1.3-4.4,4.5-6.2,7-5.7c1.9,0.4,4,2.3,3.6,6.5
	c0,0.7-0.6,1.1-1.3,1.1c0,0,0,0,0,0c-0.7-0.1-1.1-0.7-1.1-1.3c0.2-2.2-0.5-3.7-1.7-4c-1.4-0.3-3.3,1.1-4.2,4.1
	c-0.8,2.7-0.7,5,0.5,6.3c0.5,0.6,1.2,1,2.1,1c0.7-0.1,1.3,0.3,1.4,0.9c0.1,0.7-0.3,1.3-0.9,1.4c-0.1,0-0.1,0-0.2,0
	C84.3,319.8,84.2,319.8,84,319.8z"/>
<path class="st6" d="M98.8,319.8c-1.4,0-2.8-0.7-3.7-1.8c-1-1.1-2.4-3.8-1-8.6c1.3-4.4,4.5-6.2,7-5.7c1.9,0.4,4,2.3,3.6,6.5
	c0,0.7-0.6,1.1-1.3,1.1c0,0,0,0,0,0c-0.7-0.1-1.2-0.6-1.1-1.3c0.2-2.2-0.5-3.7-1.7-4s-3.3,1.1-4.2,4.1c-0.8,2.7-0.7,5,0.5,6.3
	c0.5,0.6,1.2,1,2,1c0.7-0.1,1.3,0.3,1.4,0.9c0.1,0.7-0.3,1.3-0.9,1.4c-0.1,0-0.1,0-0.2,0C99.1,319.8,98.9,319.8,98.8,319.8z"/>
<path class="st6" d="M113.7,319.8c-1.4,0-2.8-0.7-3.7-1.8c-1-1.1-2.4-3.8-1-8.6c1.3-4.4,4.5-6.2,7-5.7c1.9,0.4,4,2.3,3.6,6.5
	c-0.1,0.7-0.6,1.2-1.3,1.1c-0.7-0.1-1.2-0.6-1.1-1.3c0.2-2.2-0.5-3.7-1.7-4s-3.3,1.1-4.2,4.1c-0.8,2.7-0.7,5,0.5,6.3
	c0.5,0.6,1.2,1,2,1c0.7-0.1,1.3,0.3,1.4,0.9c0.1,0.7-0.3,1.3-0.9,1.4c-0.1,0-0.1,0-0.2,0C114,319.8,113.8,319.8,113.7,319.8z"/>
<path class="st6" d="M128.5,319.8c-1.4-0.1-2.8-0.7-3.7-1.8c-1-1.1-2.4-3.8-1-8.6c1.3-4.4,4.5-6.2,7-5.7c1.9,0.4,4,2.3,3.6,6.5
	c-0.1,0.7-0.6,1.2-1.3,1.1s-1.2-0.6-1.1-1.3l0,0c0.2-2.2-0.5-3.7-1.7-4s-3.3,1.1-4.2,4.1c-0.8,2.7-0.7,5,0.5,6.3c0.5,0.6,1.2,1,2,1
	c0.7-0.1,1.3,0.3,1.4,0.9c0.1,0.7-0.3,1.3-0.9,1.4c-0.1,0-0.1,0-0.2,0C128.8,319.8,128.7,319.8,128.5,319.8z"/>
<path class="st6" d="M143.4,319.8c-1.4-0.1-2.8-0.7-3.7-1.8c-1-1.1-2.4-3.8-1-8.6c1.3-4.4,4.5-6.2,7-5.7c1.9,0.4,4,2.3,3.6,6.5
	c-0.1,0.7-0.6,1.2-1.3,1.1c0,0,0,0,0,0c-0.7-0.1-1.2-0.6-1.1-1.3c0.2-2.2-0.4-3.7-1.7-4c-1.4-0.3-3.3,1.1-4.2,4.1
	c-0.8,2.7-0.6,5,0.5,6.3c0.5,0.6,1.2,1,2.1,1c0.7,0,1.2,0.5,1.3,1.1c0,0.6-0.4,1.1-0.9,1.3C143.7,319.8,143.5,319.8,143.4,319.8z"/>
<path class="st6" d="M158.2,319.8c-1.4-0.1-2.8-0.7-3.7-1.8c-1-1.1-2.4-3.8-1-8.6c1.3-4.4,4.5-6.2,7-5.7c1.9,0.4,4,2.3,3.6,6.5
	c-0.1,0.7-0.6,1.2-1.3,1.1c0,0,0,0,0,0c-0.7-0.1-1.2-0.6-1.1-1.3c0.2-2.2-0.5-3.7-1.7-4c-1.4-0.3-3.3,1.1-4.2,4.1
	c-0.8,2.7-0.6,5,0.5,6.3c0.5,0.6,1.2,1,2,1c0.7-0.1,1.3,0.3,1.4,0.9c0.1,0.7-0.3,1.3-0.9,1.4c-0.1,0-0.1,0-0.2,0
	C158.5,319.8,158.4,319.8,158.2,319.8z"/>
<path class="st6" d="M173.1,319.8c-1.4-0.1-2.8-0.7-3.7-1.8c-1-1.1-2.4-3.8-1-8.6c1.3-4.4,4.5-6.2,7-5.7c1.9,0.4,4,2.3,3.6,6.5
	c0,0.7-0.6,1.1-1.3,1.1c0,0,0,0,0,0c-0.7-0.1-1.2-0.6-1.1-1.3c0.2-2.2-0.5-3.7-1.7-4c-1.4-0.3-3.3,1.1-4.2,4.1
	c-0.8,2.7-0.6,5,0.5,6.3c0.5,0.6,1.2,1,2.1,1c0.7,0,1.2,0.5,1.3,1.1c0,0.6-0.4,1.1-0.9,1.3C173.4,319.8,173.3,319.8,173.1,319.8z"/>
<path class="st6" d="M188,319.8c-1.4-0.1-2.8-0.7-3.7-1.8c-1-1.1-2.4-3.8-1-8.6c1.3-4.4,4.5-6.2,7-5.7c1.9,0.4,4,2.3,3.6,6.5
	c0,0.7-0.6,1.1-1.3,1.1c0,0,0,0,0,0c-0.7-0.1-1.2-0.6-1.1-1.3c0.2-2.2-0.5-3.7-1.7-4s-3.3,1.1-4.2,4.1c-0.8,2.7-0.6,5,0.5,6.3
	c0.5,0.6,1.2,1,2,1c0.7-0.1,1.3,0.3,1.4,0.9c0.1,0.7-0.3,1.3-0.9,1.4c-0.1,0-0.1,0-0.2,0C188.3,319.8,188.1,319.8,188,319.8z"/>
<path class="st6" d="M202.8,319.8c-1.4,0-2.8-0.7-3.7-1.8c-1-1.1-2.4-3.8-1-8.6c1.3-4.4,4.5-6.2,7-5.7c1.9,0.4,4,2.3,3.6,6.5
	c0,0.7-0.6,1.1-1.3,1.1c0,0,0,0,0,0c-0.7-0.1-1.2-0.6-1.1-1.3c0.2-2.2-0.5-3.7-1.7-4c-1.4-0.3-3.3,1.1-4.2,4.1
	c-0.8,2.7-0.6,5,0.5,6.3c0.5,0.6,1.2,1,2.1,1c0.7,0,1.2,0.5,1.3,1.1c0,0.6-0.4,1.1-0.9,1.3C203.1,319.8,203,319.8,202.8,319.8z"/>
<path class="st6" d="M217.7,319.8c-1.4-0.1-2.8-0.7-3.7-1.8c-1-1.1-2.4-3.8-1-8.6c1.3-4.4,4.5-6.2,7-5.7c1.9,0.4,4,2.3,3.6,6.5
	c0,0.7-0.6,1.1-1.3,1.1c0,0,0,0,0,0c-0.7-0.1-1.2-0.6-1.1-1.3c0,0,0,0,0,0c0.2-2.2-0.5-3.7-1.7-4s-3.3,1.1-4.2,4.1
	c-0.8,2.7-0.6,5,0.5,6.3c0.5,0.6,1.2,1,2,1c0.7-0.1,1.3,0.3,1.4,0.9c0.1,0.7-0.3,1.3-0.9,1.4c-0.1,0-0.1,0-0.2,0
	C218,319.8,217.8,319.8,217.7,319.8z"/>
<path class="st6" d="M232.5,319.8c-1.4-0.1-2.8-0.7-3.7-1.8c-1-1.1-2.4-3.8-1-8.6c1.3-4.4,4.5-6.2,7-5.7c1.9,0.4,4,2.3,3.6,6.5
	c-0.1,0.7-0.6,1.2-1.3,1.1s-1.2-0.6-1.1-1.3l0,0c0.2-2.2-0.5-3.7-1.7-4c-1.4-0.3-3.3,1.1-4.2,4.1c-0.8,2.7-0.6,5,0.5,6.3
	c0.5,0.6,1.2,1,2,1c0.7,0,1.2,0.5,1.3,1.1c0,0.6-0.4,1.1-1,1.3C232.8,319.8,232.7,319.8,232.5,319.8z"/>
<path class="st6" d="M247.4,319.8c-1.4-0.1-2.8-0.7-3.7-1.8c-1-1.1-2.4-3.8-1-8.6c1.3-4.4,4.5-6.2,7-5.7c1.9,0.4,4,2.3,3.6,6.5
	c-0.1,0.7-0.6,1.2-1.3,1.1c0,0,0,0,0,0c-0.7-0.1-1.2-0.6-1.1-1.3c0.2-2.2-0.5-3.7-1.7-4c-1.4-0.3-3.3,1.1-4.2,4.1
	c-0.8,2.7-0.6,5,0.5,6.3c0.5,0.6,1.2,1,2.1,1c0.7,0,1.2,0.5,1.3,1.1c0,0.6-0.4,1.1-0.9,1.3C247.7,319.8,247.6,319.8,247.4,319.8z"/>
<g id="freepik--speech-bubble--inject-65">
	<path class="st1" d="M385.9,117.2c-1.4,13.6-13.6,23.5-27.2,22.1c-5.3-0.5-10.3-2.8-14.2-6.4l-12.4,1.8l6.2-10.7
		c-1.6-3.8-2.1-7.9-1.7-11.9c1.3-13.6,13.4-23.6,27-22.3s23.6,13.4,22.3,27C386,116.9,385.9,117,385.9,117.2L385.9,117.2z"/>
	<path class="st2" d="M385.9,117.2c-0.5,4.6-2.2,8.9-5,12.6c-0.7,0.9-1.4,1.8-2.2,2.6c-0.8,0.8-1.7,1.5-2.6,2.2
		c-1.8,1.4-3.9,2.5-6,3.3c-3.2,1.3-6.6,1.8-10.1,1.7c-1.2,0-2.3-0.2-3.4-0.4c-4.6-0.8-8.8-2.9-12.3-6.1l0.3,0.1l-12.4,1.9l-0.9,0.1
		l0.5-0.8l6.2-10.7v0.4c-5.2-12.8,0.9-27.5,13.8-32.7c5.5-2.2,11.6-2.5,17.3-0.6c3.6,1.2,6.8,3.2,9.6,5.9
		C384,102,386.7,109.6,385.9,117.2z M385.9,117.2c1.4-13.5-8.3-25.5-21.8-27c-2.1-0.2-4.2-0.2-6.3,0.1c-3.7,0.5-7.2,1.9-10.2,4
		c-3,2.1-5.6,4.9-7.4,8.1c-3.7,6.5-4.2,14.4-1.4,21.3l0.1,0.2l-0.1,0.2l-6.2,10.7l-0.5-0.6l12.4-1.7h0.2l0.1,0.1
		c3.3,3.1,7.4,5.2,11.9,6.1c1.1,0.2,2.2,0.4,3.4,0.4c1.1,0.1,2.3,0.1,3.4,0c2.3-0.2,4.5-0.7,6.6-1.5c2.1-0.8,4.2-1.9,6-3.2
		c0.9-0.7,1.8-1.4,2.6-2.2c0.8-0.8,1.6-1.7,2.2-2.6C383.7,126,385.4,121.7,385.9,117.2z"/>
	<polygon class="st3" points="358.4,128.7 347.8,118 351.3,114.5 357.5,120.8 370.4,100.6 374.6,103.3 	"/>
</g>
<g>
	<path class="st1" d="M200.6,342.1l-3.4,0.5l-0.1-0.5l0.8-0.2c-0.2-0.2-0.3-0.4-0.4-0.6c-0.1-0.2-0.1-0.4-0.1-0.7
		c0-0.3,0.1-0.5,0.2-0.8c0.1-0.2,0.3-0.4,0.6-0.6c0.2-0.1,0.5-0.2,0.8-0.2c0.2,0,0.4,0,0.6,0.1s0.4,0.1,0.5,0.2L200,340
		c-0.2-0.1-0.4-0.2-0.7-0.2c-0.2,0-0.4,0-0.6,0.1c-0.2,0.1-0.3,0.2-0.4,0.4c-0.1,0.2-0.2,0.3-0.2,0.5c0,0.2,0,0.3,0.1,0.5
		c0.1,0.2,0.2,0.3,0.3,0.4l1.9-0.4L200.6,342.1z"/>
	<path class="st1" d="M203.1,342.2l0,0.7l-1.5-0.1l0.3-5.6l0.8,0l-0.2,5L203.1,342.2z"/>
	<path class="st1" d="M209.5,342.5l0,0.7l-6.4-0.3l0-0.7l0.9,0l0-0.5c0-0.3,0.1-0.5,0.2-0.7c0.1-0.2,0.3-0.4,0.6-0.5
		c0.2-0.1,0.5-0.2,0.8-0.2c0.3,0,0.5,0.1,0.7,0.2c0.2,0.1,0.4,0.3,0.5,0.6c0.1,0.2,0.2,0.5,0.2,0.8l0,0.5l1,0.1l0-1
		c0-0.8-0.1-1.3-0.5-1.6c-0.4-0.3-0.8-0.5-1.4-0.5c-0.4,0-0.9,0-1.7,0.1l0-0.6c0.8-0.2,1.4-0.2,1.9-0.2c0.5,0,1,0.1,1.3,0.4
		c0.4,0.2,0.7,0.5,0.9,0.9c0.2,0.4,0.3,0.9,0.3,1.6l0,1L209.5,342.5z M205,341.2c-0.1,0.1-0.2,0.3-0.2,0.5l0,0.5l1.5,0.1l0-0.5
		c0-0.2-0.1-0.4-0.2-0.5c-0.1-0.2-0.3-0.2-0.5-0.2C205.3,341,205.2,341.1,205,341.2z"/>
	<path class="st1" d="M212.6,342.7l0,0.7l-3.1-0.2l0-0.7l1.2,0.1l0.2-3.3l0.8,0l-0.2,3.3L212.6,342.7z M210.4,337.8l0.7,0l0,0.8
		l-0.7,0L210.4,337.8z M211.5,337.8l0.7,0l0,0.8l-0.7,0L211.5,337.8z"/>
	<path class="st1" d="M214.7,339.5l-0.2,4l-1.9-0.1l0-0.7l1.2,0.1l0.2-3.3L214.7,339.5z M214.1,338l0.7,0l0,0.8l-0.7,0L214.1,338z"
		/>
	<path class="st1" d="M216.1,337.9l0.8,0l-0.3,5.6l-0.8,0L216.1,337.9z"/>
	<path class="st1" d="M199.1,346.6l-0.3,5.6l-2.9-0.1c-0.5,0-0.9-0.1-1.2-0.2c-0.3-0.1-0.5-0.2-0.7-0.5c-0.1-0.2-0.2-0.5-0.2-0.8
		c0-0.3,0.1-0.8,0.3-1.5l0.6,0.1l0,0.3c-0.1,0.5-0.2,0.8-0.2,1c0,0.3,0.1,0.5,0.3,0.7c0.2,0.1,0.6,0.2,1.1,0.3l2.2,0.1l0.2-5
		L199.1,346.6z M197.2,349l-1.7,0.2l-0.1-0.3l0.4-0.1c-0.1-0.1-0.2-0.2-0.2-0.3c0-0.1-0.1-0.2-0.1-0.3c0-0.2,0.1-0.4,0.2-0.5
		c0.1-0.1,0.3-0.2,0.6-0.2c0.2,0,0.4,0.1,0.6,0.2l-0.1,0.4c0,0-0.1-0.1-0.1-0.1c-0.1,0-0.1,0-0.2,0c-0.1,0-0.2,0-0.3,0.1
		c-0.1,0.1-0.1,0.2-0.1,0.3c0,0.1,0,0.3,0.2,0.4l0.9-0.2L197.2,349z"/>
	<path class="st1" d="M200.5,346.6l0.8,0l-0.3,5.6l-0.8,0L200.5,346.6z"/>
	<path class="st1" d="M204.9,352.5l-1.1-0.1l0,0c0,0.6-0.2,1.1-0.4,1.4c-0.2,0.3-0.6,0.5-1,0.4c-0.1,0-0.3,0-0.4,0l-0.2,0l0-0.7
		c0.2,0,0.3,0,0.4,0c0.2,0,0.4-0.1,0.6-0.3c0.1-0.2,0.2-0.4,0.2-0.8l0.2-4.2l0.7,0l-0.2,3.3l1.1,0.1L204.9,352.5z"/>
	<path class="st1" d="M208.1,352l0,0.7l-3.1-0.2l0-0.7l1.2,0.1l0.2-3.3l0.8,0l-0.2,3.3L208.1,352z M205.9,347.1l0.7,0l0,0.8l-0.7,0
		L205.9,347.1z M207,347.1l0.7,0l0,0.8l-0.7,0L207,347.1z"/>
	<path class="st1" d="M214.2,350c0,0.3,0,0.6,0,0.8l-0.1,2.2l-1.5-0.1c-0.3,0-0.6-0.1-0.9-0.4c-0.2,0.2-0.5,0.3-0.8,0.3l-2.9-0.1
		l0-0.7l1.3,0.1l0.1-2.9l0.8,0l-0.1,2.9l0.6,0c0.2,0,0.4-0.1,0.5-0.3c0.1-0.2,0.2-0.4,0.2-0.7l0.1-1.9l0.8,0l-0.1,1.9
		c0,0.3-0.1,0.6-0.1,0.8c0.1,0.1,0.2,0.1,0.3,0.2c0.1,0.1,0.2,0.1,0.3,0.1l0.8,0l0.1-1.5c0-0.4,0-0.9,0-1.7l0.6,0
		C214.1,349.3,214.2,349.6,214.2,350z M211.2,347.4l0.7,0l0,0.8l-0.7,0L211.2,347.4z M211.7,346.4l0.6,0l0,0.7l-0.6,0L211.7,346.4z
		 M212.2,347.4l0.7,0l0,0.8l-0.7,0L212.2,347.4z"/>
	<path class="st1" d="M215.6,347.4l0.8,0l-0.3,5.6l-0.8,0L215.6,347.4z"/>
	<path class="st1" d="M193.6,361.5c-0.2,0.1-0.2,0.4-0.3,0.7c0,0.7,0.3,1.1,1.1,1.2c0.4,0,0.9,0,1.5-0.1l0.1,0.6l-0.3,0
		c-0.6,0.1-1.1,0.1-1.4,0.1c-0.6,0-1-0.2-1.3-0.5c-0.3-0.3-0.4-0.8-0.4-1.4c0-0.4,0.1-0.8,0.3-1c0.2-0.2,0.5-0.4,0.8-0.5
		c-0.3-0.3-0.6-0.7-0.8-1c-0.2-0.4-0.3-0.7-0.3-1l0-0.6c0.3-0.2,0.7-0.3,1-0.4c0.4-0.1,0.7-0.1,1-0.1c0.3,0,0.7,0.1,1,0.2
		c0.3,0.1,0.7,0.3,1,0.5l-0.1,0.6c0,0.3-0.2,0.6-0.4,1c-0.3,0.4-0.6,0.7-1,1c0.3,0.1,0.6,0.2,0.8,0.2l0.9,0l0,0.7l-0.9,0
		c-0.3,0-0.5-0.1-0.8-0.1c-0.3-0.1-0.5-0.2-0.7-0.3l-0.2,0.1C194,361.2,193.7,361.3,193.6,361.5z M193.6,359.4
		c0.2,0.4,0.5,0.7,0.9,0.9c0.4-0.2,0.7-0.5,1-0.8c0.2-0.3,0.4-0.7,0.4-1c-0.5-0.2-0.9-0.3-1.3-0.3c-0.3,0-0.8,0-1.3,0.2
		C193.3,358.7,193.4,359.1,193.6,359.4z"/>
	<path class="st1" d="M201.3,358l-0.2,3.9l-4.2-0.2l0-0.7l1,0.1c-0.1-0.3-0.1-0.7-0.1-1.3c0-0.5,0.1-0.9,0.3-1.2
		c0.1-0.3,0.4-0.5,0.6-0.6c0.3-0.1,0.7-0.1,1.2-0.1c0.4,0,0.8,0.1,1.1,0.1L201.3,358z M198.6,360.6c0,0.2,0.1,0.3,0.2,0.4l1.6,0.1
		l0.1-2.6c-0.3,0-0.6-0.1-0.7-0.1c-0.3,0-0.6,0-0.7,0.1c-0.2,0.1-0.3,0.2-0.4,0.4c-0.1,0.2-0.1,0.5-0.1,0.8
		C198.6,360.2,198.6,360.4,198.6,360.6z M199,356.2l0.7,0l0,0.8l-0.7,0L199,356.2z M200,356.3l0.7,0l0,0.8l-0.7,0L200,356.3z"/>
	<path class="st1" d="M206.2,362.1l-1,0c-0.1,0.6-0.2,1.1-0.5,1.4c-0.2,0.3-0.6,0.5-1.1,0.5c-0.2,0-0.6-0.1-1.2-0.2l0-0.7
		c0.5,0.1,0.9,0.2,1.2,0.2c0.2,0,0.3,0,0.4-0.1c0.1-0.1,0.2-0.2,0.3-0.4c0.1-0.2,0.1-0.5,0.1-0.8l-1.1-0.1c-0.6,0-1-0.2-1.2-0.6
		c-0.2-0.4-0.2-0.9-0.2-1.4c0-0.5,0.1-0.9,0.2-1.2c0.1-0.3,0.3-0.5,0.6-0.7c0.3-0.1,0.6-0.2,1-0.2c0.2,0,0.5,0,0.8,0.1
		c0.3,0,0.6,0.1,0.8,0.2l-0.2,3.3l1,0L206.2,362.1z M202.9,360.9c0.1,0.3,0.4,0.4,0.8,0.4l0.8,0l0.1-2.7c-0.3,0-0.5-0.1-0.7-0.1
		c-0.4,0-0.7,0.1-0.9,0.3c-0.2,0.2-0.3,0.6-0.3,1.1C202.7,360.3,202.7,360.6,202.9,360.9z"/>
	<path class="st1" d="M211.8,361.7l0,0.7l-0.3,0c-0.1,0-0.2,0-0.3-0.1c-0.1-0.1-0.2-0.1-0.3-0.2l0,0.3l-4.7-0.2l0-0.7l1.3,0.1
		c-0.1-0.4-0.1-0.9,0-1.3c0-0.3,0.1-0.7,0.1-1c0.1-0.3,0.1-0.6,0.2-0.8c0.1-0.1,0.3-0.1,0.6-0.1c0.3,0,0.5,0,0.8,0
		c0.7,0,1.2,0.2,1.5,0.6c0.3,0.3,0.4,0.9,0.4,1.6l0,1c0.1,0.1,0.1,0.2,0.2,0.2c0.1,0.1,0.2,0.1,0.3,0.1L211.8,361.7z M208.2,360.9
		c0,0.2,0,0.4,0,0.6l1.9,0.1l0.1-1.3c0-0.5-0.1-0.8-0.3-1.1c-0.2-0.2-0.5-0.3-1-0.4c-0.2,0-0.4,0-0.7,0c-0.1,0.5-0.2,0.9-0.2,1.3
		C208.2,360.5,208.2,360.7,208.2,360.9z"/>
	<path class="st1" d="M213.8,356.8l-0.3,5.6l-1.7-0.1l0-0.7l1,0l0.2-5L213.8,356.8z"/>
	<path class="st1" d="M215.1,356.9l0.8,0l-0.3,5.6l-0.8,0L215.1,356.9z"/>
</g>
</svg>
